<svg width="20" height="20" viewBox="0 0 20 20" fill="none" xmlns="http://www.w3.org/2000/svg">
    <path d="M10 0C4.47715 0 0 4.47715 0 10C0 15.5228 4.47715 20 10 20C15.5228 20 20 15.5228 20 10C20 7.34784 18.9464 4.8043 17.0711 2.92893C15.1957 1.05357 12.6522 0 10 0Z" fill="white" fill-opacity="0.25" />
    <path d="M14.3499 7.72999L8.72985 13.35C8.63912 13.4467 8.51244 13.5015 8.37985 13.5015C8.24727 13.5015 8.12059 13.4467 8.02985 13.35L5.64985 11C5.5552 10.9061 5.50195 10.7783 5.50195 10.645C5.50195 10.5117 5.5552 10.3839 5.64985 10.29L6.17985 9.75999C6.27059 9.66332 6.39727 9.60848 6.52985 9.60848C6.66244 9.60848 6.78912 9.66332 6.87985 9.75999L8.37985 11.25L13.1199 6.50999C13.3143 6.31942 13.6254 6.31942 13.8199 6.50999L14.3499 7.03999C14.534 7.23314 14.534 7.53684 14.3499 7.72999Z" fill="white" />
</svg>
